<svg width="20" height="24" viewBox="0 0 20 24" fill="none" xmlns="http://www.w3.org/2000/svg">
<rect width="13.1318" height="2.90587" rx="1.45294" transform="matrix(-0.781722 0.623627 -0.636436 -0.77133 20.1148 2.24139)" fill="#D9D9D9"/>
<path d="M11.1867 9.30763C10.6758 9.92672 9.75285 10.0228 9.12535 9.52214L1.13622 3.14842C0.508717 2.6478 0.414259 1.7401 0.925238 1.12101C1.43622 0.501918 2.35914 0.405877 2.98663 0.906494L10.9758 7.28022C11.6033 7.78083 11.6977 8.68854 11.1867 9.30763Z" fill="#D9D9D9"/>
<rect width="13.1318" height="2.90587" rx="1.45294" transform="matrix(-0.781722 0.623627 -0.636436 -0.77133 20.1148 8.89404)" fill="#D9D9D9"/>
<path d="M11.1867 15.9603C10.6758 16.5794 9.75285 16.6754 9.12535 16.1748L1.13622 9.80107C0.508717 9.30045 0.414259 8.39275 0.925238 7.77366C1.43622 7.15457 2.35914 7.05853 2.98663 7.55914L10.9758 13.9329C11.6033 14.4335 11.6977 15.3412 11.1867 15.9603Z" fill="#D9D9D9"/>
<rect width="13.1318" height="2.90587" rx="1.45294" transform="matrix(-0.781722 0.623627 -0.636436 -0.77133 20.1148 15.5467)" fill="#D9D9D9"/>
<path d="M11.1867 22.6129C10.6758 23.232 9.75285 23.3281 9.12535 22.8274L1.13622 16.4537C0.508717 15.9531 0.414259 15.0454 0.925238 14.4263C1.43622 13.8072 2.35914 13.7112 2.98663 14.2118L10.9758 20.5855C11.6033 21.0861 11.6977 21.9938 11.1867 22.6129Z" fill="#D9D9D9"/>
</svg>
